<?xml version="1.0" standalone="no"?>
<!DOCTYPE svg PUBLIC "-//W3C//DTD SVG 20010904//EN"
 "http://www.w3.org/TR/2001/REC-SVG-20010904/DTD/svg10.dtd">
<svg version="1.0" xmlns="http://www.w3.org/2000/svg"
 width="184.000000pt" height="184.000000pt" viewBox="0 0 184.000000 184.000000"
 preserveAspectRatio="xMidYMid meet">
<metadata>
Created by potrace 1.11, written by Peter Selinger 2001-2013
</metadata>
<g transform="translate(0.000000,184.000000) scale(0.100000,-0.100000)"
fill="#000000" stroke="none">
<path d="M52 1323 c-7 -3 -19 -18 -27 -33 -12 -24 -15 -89 -15 -373 l0 -344
26 -27 27 -26 189 0 190 0 29 29 c28 28 29 33 29 120 l0 91 -79 0 -80 0 -3
-37 -3 -38 -82 -3 -83 -3 0 246 0 245 85 0 85 0 0 -40 0 -40 75 0 75 0 0 100
c0 145 7 140 -234 139 -105 0 -197 -3 -204 -6z"/>
<path d="M660 951 l0 -378 26 -27 27 -26 189 0 190 0 30 31 31 31 -6 255 c-4
141 -7 310 -7 375 l0 118 -75 0 -75 0 -2 -322 -3 -323 -82 -3 -83 -3 0 326 0
325 -80 0 -80 0 0 -379z"/>
<path d="M1310 1250 l0 -80 85 0 84 0 -6 -325 -6 -325 88 0 88 0 -5 325 -6
325 79 0 79 0 0 80 0 80 -240 0 -240 0 0 -80z"/>
</g>
</svg>
